<?xml version="1.0" encoding="utf-8"?>
<!-- Generator: Adobe Illustrator 26.3.1, SVG Export Plug-In . SVG Version: 6.00 Build 0)  -->
<svg version="1.1" id="Layer_1" xmlns="http://www.w3.org/2000/svg" xmlns:xlink="http://www.w3.org/1999/xlink" x="0px" y="0px"
	 viewBox="0 0 118.1 42" style="enable-background:new 0 0 118.1 42;" xml:space="preserve">
<style type="text/css">
	.st0{fill:#0577A8;}
	.st1{fill:#084B72;}
	.st2{fill:#0077A8;}
	.st3{fill:#0C4B72;}
	.st4{fill:#27AAE1;}
</style>
<g id="horizontal">
	<g>
		<polygon class="st0" points="51.1,22.8 56.7,22.8 56.7,18.8 51.1,18.8 51.1,12.3 57.6,12.3 57.6,8.2 46.6,8.2 46.6,33.9 
			57.7,33.9 57.7,29.9 51.1,29.9 		"/>
		<rect x="58.6" y="18.8" class="st0" width="8.4" height="4.1"/>
	</g>
	<g>
		<path class="st1" d="M78.7,8.3H71c-1.7,0-2.6,0.9-2.6,2.6v20.3c0,1.7,0.9,2.6,2.6,2.6h7.8c1.7,0,2.6-0.9,2.6-2.6v-6.5H77V30h-4.1
			V12.2H77v4.9h4.4v-6.2C81.4,9.2,80.5,8.3,78.7,8.3z"/>
		<path class="st1" d="M97.2,33.9l-4.1-11.3c1,0,1.7-0.1,2.1-0.3c0.9-0.4,1.3-1.2,1.3-2.4v-9.1c0-1.7-0.9-2.6-2.6-2.6H83.6v25.6H88
			V22l4.5,11.9H97.2z M92,19.4l-4,0v-7.2h4V19.4z"/>
		<rect x="98.7" y="8.3" class="st1" width="4.4" height="25.6"/>
		<path class="st1" d="M118.1,16.8v-5.9c0-1.7-0.9-2.6-2.6-2.6H108c-1.7,0-2.6,0.9-2.6,2.6v5.5c0,0.9,0.3,1.7,0.9,2.2l7.4,7V30h-3.8
			V25h-4.4v6.3c0,1.7,0.9,2.6,2.6,2.6h7.5c1.7,0,2.6-0.9,2.6-2.6v-5.9c0-0.9-0.3-1.7-0.9-2.3l-7.4-6.9v-4h3.8v4.7H118.1z"/>
	</g>
</g>
<g>
	<circle class="st2" cx="18.9" cy="21" r="3.5"/>
	<g>
		<path class="st3" d="M2.3,30.1c1.8,3.4,10.7,1.6,19.7-3.5c8.9-5.2,14.4-11.8,12.7-15.2c-0.7-1.5-2-2.2-6.9-2.1
			c5.1-1.5,7.6-1.3,9.2,1.5c2.9,5-2.9,13.7-13,19.5S3.5,36.6,0.6,31.7c-1.4-2.5,0.2-6.1,3.8-9.4C1.8,27.5,1.8,29.2,2.3,30.1z"/>
		<path class="st4" d="M34.8,30.8c2-3.3-4-10.1-12.9-15.3C13,10.4,4,8.7,2.3,12.1c-1.1,2.4,0.3,4.7,2.2,8.3c-3.9-3.6-5.5-7.2-3.9-10
			C3.5,5.5,14,6.1,24,11.9s15.8,14.6,13,19.5c-1.4,2.5-4.9,3.2-9.6,1.8C33.2,32.8,34.3,31.7,34.8,30.8z"/>
		<path class="st2" d="M20.2,39.8c-3.8,0.1-6.8-8.5-6.8-18.8c0-10.3,3-19,6.8-18.7c2.7,0.2,3.9,2.6,6.1,6.1C25.1,3.2,22.8,0,19.6,0
			C13.9,0,9.2,9.4,9.2,21s4.7,21,10.4,21c2.9,0,5.2-2.7,6.3-7.4C22.7,39.4,21.2,39.8,20.2,39.8z"/>
	</g>
</g>
</svg>
