<svg viewBox="0 0 16 16" version="1.1" xmlns="http://www.w3.org/2000/svg">
  <path d="M16,0 L16,16 L0,16 L0,0 L16,0 Z M4.88,4.18666667 C3.568,4.18666667 2.768,5.04 2.768,6.128 C2.768,7.12 3.568,7.6 4.368,8.08 L4.60266667,8.21866667 C5.25333333,8.61333333 5.936,8.88 5.936,9.584 C5.936,10.2666667 5.328,10.7573333 4.60266667,10.7573333 C3.888,10.7573333 3.41866667,10.5973333 2.87466667,10.2666667 L2.74666667,11.1093333 C3.30133333,11.3653333 3.86666667,11.4826667 4.64533333,11.4826667 C5.73333333,11.4826667 6.87466667,10.8106667 6.87466667,9.47733333 C6.87466667,8.65745455 6.28592837,8.20354821 5.60316554,7.78580516 L5.11466667,7.49333333 C4.44266667,7.088 3.728,6.81066667 3.728,6.064 C3.728,5.50933333 4.13333333,4.90133333 4.93333333,4.90133333 C5.62666667,4.90133333 6.10666667,5.008 6.71466667,5.37066667 L6.768,4.528 C6.20266667,4.29333333 5.79733333,4.18666667 4.88,4.18666667 Z M11.5466667,4.18666667 C9.47733333,4.18666667 7.90933333,5.79733333 7.90933333,7.84533333 C7.90933333,10.1813333 9.776,11.4613333 11.5146667,11.4613333 C12.3893333,11.4613333 13.1146667,11.344 13.6906667,11.056 L13.6906667,11.056 L13.6266667,10.2453333 C12.976,10.5973333 12.2826667,10.736 11.5893333,10.736 C10.0746667,10.736 8.86933333,9.46666667 8.86933333,7.78133333 C8.86933333,6 10.0533333,4.90133333 11.44,4.90133333 C12.3146667,4.90133333 12.9866667,5.04 13.6266667,5.392 L13.6266667,5.392 L13.6906667,4.592 C13.104,4.31466667 12.624,4.18666667 11.5466667,4.18666667 Z" id="Combined-Shape" fill="#505050" fill-rule="evenodd" />
</svg>
