<?xml version="1.0" encoding="utf-8"?>
<!-- Generator: Adobe Illustrator 27.9.0, SVG Export Plug-In . SVG Version: 6.00 Build 0)  -->
<svg version="1.1" id="Layer_1" xmlns:serif="http://www.serif.com/"
	 xmlns="http://www.w3.org/2000/svg" xmlns:xlink="http://www.w3.org/1999/xlink" x="0px" y="0px" viewBox="0 0 1920 1080"
	 style="enable-background:new 0 0 1920 1080;" xml:space="preserve">
<style type="text/css">
	.st0{fill:url(#SVGID_1_);}
</style>
<linearGradient id="SVGID_1_" gradientUnits="userSpaceOnUse" x1="970.667" y1="-434.8476" x2="970.667" y2="632.3931">
	<stop  offset="0" style="stop-color:#FFF8B7"/>
	<stop  offset="0.5383" style="stop-color:#FDC60B"/>
	<stop  offset="1" style="stop-color:#F28F3F"/>
</linearGradient>
<path class="st0" d="M1526.6,460.4c-0.3-11.8-1.1-22.9-1.7-33.2c-0.8-10.3-1.5-19.7-2.3-28.3c-3.3-34.4-6.7-54.8-7-57.3
	c-1.1-6.9-3.7-12.8-7.3-17.4c-0.1-0.2-0.3-0.4-0.4-0.6c-0.1-0.2-0.3-0.4-0.4-0.5c-3.6-4.5-8.2-7.9-13.5-9.3
	c-1.9-0.4-17.8-4.8-44.5-8.9c-6.7-1-14.1-1.9-22-2.9c-8-0.7-16.6-1.7-25.8-2.1c-15.7-1-33.1-1.1-51.8,0.1
	c-5.7-21.4-11.8-41-17.9-58.5c-3.6-10.9-7.5-20.8-10.9-30.2c-3.6-9.2-6.9-17.7-10.1-25.3c-12.7-30.5-21.6-48-22.6-50.1
	c-3-5.9-7.1-10.2-11.7-12.8c-0.2-0.1-0.4-0.2-0.5-0.3c-0.2-0.1-0.4-0.2-0.6-0.3c-4.6-2.6-9.8-3.6-15.2-2.4
	c-1.9,0.5-17.9,3.9-44,12.4c-6.5,2.1-13.6,4.8-21.4,7.5c-7.7,3.1-16,6.1-24.6,10.1c-17.4,7.5-36.7,17.1-57,29.2
	c-3.3,1.9-6.6,4.1-9.9,6.1c-1.3-2-2.6-4-4-5.9c-14.8-21.6-29.5-40.4-43.1-56.2c-6.7-8.1-13.4-15.1-19.4-22
	c-6.2-6.5-11.9-12.6-17.2-17.9c-21.2-21.3-34.8-32.7-36.4-34.1c-4.6-3.9-9.7-5.7-14.7-5.7c-0.2,0-0.4,0-0.6,0c-0.2,0-0.4,0-0.6,0
	c-5,0-10.1,1.8-14.7,5.7c-1.6,1.4-15.2,12.8-36.4,34.2c-5.3,5.4-11,11.4-17.2,18c-6,6.8-12.7,13.9-19.4,22
	c-13.6,15.9-28.2,34.7-43,56.3c-0.8,1.2-1.6,2.4-2.4,3.6c-2.2-1.4-4.5-2.8-6.7-4.1c-20.3-12.2-39.6-21.7-57-29.2
	c-8.7-4-17-7-24.6-10.1c-7.7-2.8-14.8-5.4-21.4-7.5c-26.1-8.6-42.1-12-44-12.4c-5.4-1.2-10.6-0.2-15.2,2.4c-0.2,0.1-0.4,0.2-0.6,0.3
	c-0.2,0.1-0.4,0.2-0.5,0.3c-4.6,2.6-8.7,6.9-11.7,12.8c-1,2.1-9.9,19.6-22.6,50.1c-3.2,7.6-6.5,16.2-10.1,25.3
	c-3.4,9.4-7.3,19.3-10.9,30.2c-6.1,17.5-12.1,37.1-17.9,58.5c-18.7-1.1-36.1-1-51.8-0.1c-9.2,0.3-17.8,1.4-25.8,2.1
	c-8,1-15.3,1.9-22,2.9c-26.7,4.2-42.6,8.5-44.5,8.9c-5.3,1.4-9.9,4.8-13.5,9.3c-0.1,0.2-0.3,0.4-0.4,0.5c-0.1,0.2-0.3,0.4-0.4,0.6
	c-3.5,4.6-6.2,10.5-7.3,17.4c-0.3,2.4-3.7,22.9-7,57.3c-0.8,8.6-1.5,18.1-2.3,28.3c-0.5,10.3-1.4,21.3-1.7,33.2
	c-0.9,23.6-1,50.2,0.4,79c2.7,57.5,11.4,124.4,32.1,191.1c20.4,66.5,53,131.7,95.8,183.6c21.3,26,45.4,48.1,70.7,65.7
	c25.4,17.3,52,30,78.1,38.5c26.2,8.7,52,13,76.3,15.3c24.4,2.3,47.4,2.5,68.6,1.4c42.3-1.9,77.2-7.3,101.5-11.1
	c11.4-1.8,20.5-3.4,26.9-4.5c0.2,0.2,0.4,0.4,0.6,0.6c-0.8,0.3-1.2,0.5-1.2,0.5c-14.1,5.5-13.8,6.3,0.7,1.9c0,0,0.8-0.2,2.2-0.7
	c0.2,0.2,0.5,0.5,0.7,0.7c-2.6,2.9-4,4.5-4,4.5c-11.2,12.3-10.6,12.9,1.2,1.3c0,0,0.4-0.4,1.1-1.1c-4.7,12.9-3.9,12.5,2.2-1.5
	c-0.8,14.9-0.2,14.5,1.5-1.2c0.4,0.4,0.7,0.7,1,1c1.6,14.3,2.2,14.7,1.5,1.5c0.3,0.3,0.5,0.5,0.8,0.8c4.8,11,5.7,11.7,2.3,2.2
	c7.7,7.3,7.3,5.9-1.3-3.6c-0.4-1-0.7-2-1.1-3.1c0,0-0.2-0.7-0.7-1.9c2.2,0.7,3.4,1,3.4,1c14.5,4.5,14.8,3.6,0.7-1.9
	c0,0-0.9-0.3-2.4-1c0.3-0.1,0.6-0.2,1-0.3c6.5,1.1,15.9,2.7,27.8,4.6c24.3,3.8,59.2,9.1,101.5,11.1c21.1,1.1,44.2,0.9,68.6-1.4
	c24.4-2.3,50.2-6.6,76.3-15.3c26.2-8.5,52.7-21.2,78.1-38.5c25.3-17.5,49.4-39.7,70.7-65.7c42.7-51.9,75.4-117.1,95.8-183.6
	c20.6-66.7,29.4-133.6,32.1-191.1C1527.6,510.6,1527.6,484,1526.6,460.4z M1340.3,509.3c2.7,65.2-5.3,135.8-25.7,200.4
	c-10.1,32.3-23.8,62.8-39.9,90.1c-16.3,27.2-35.1,51.4-55.2,72.2c-20,20.9-41.3,38.1-62.2,52.8c-20.9,14.8-41.4,27-60.8,37.2
	c-38.7,20.6-72,34.4-95.3,44c-8.9,3.5-16.3,6.5-22.1,8.8c4.6-4.5,10.1-10,16.7-16.6c19.3-19.4,46.9-47.4,77.8-84.5
	c15.5-18.5,31.8-39.5,47.7-63.4c16-23.8,31.9-50.3,45.6-80.3c13.8-29.9,25.6-62.9,34.1-98.3c8.3-35.5,13.2-73,13.9-110.8
	c1.3-57.9-5.9-115.8-19.2-169.2c3.1-1.4,6.2-2.8,9.3-4.1c38.9-16.8,77.6-24.4,112.7-26.8C1329.3,404.4,1338.3,455,1340.3,509.3z
	 M601,509.3c2.1-54.3,11.1-104.9,22.5-148.7c35.1,2.5,73.8,10.1,112.7,26.8c1.8,0.8,3.6,1.6,5.4,2.4c-13.6,54-20.8,112.6-19.4,171.1
	c0.9,37.7,5.8,75.1,14.1,110.5c8.5,35.3,20.4,68.2,34.2,97.9c13.7,29.8,29.6,56.3,45.6,80c16,23.7,32.2,44.7,47.7,63.1
	c31,37,58.6,64.8,77.9,84.2c6.8,6.7,12.6,12.4,17.2,17c-5.3-2.1-11.6-4.6-19-7.5c-23.3-9.5-56.7-23.3-95.3-44
	c-19.3-10.2-39.9-22.5-60.8-37.2c-20.9-14.7-42.2-31.9-62.2-52.8c-20.1-20.7-38.9-44.9-55.2-72.2c-16.1-27.3-29.7-57.8-39.9-90.1
	C606.3,645,598.3,574.4,601,509.3z M846.1,254.2c27.8,17.6,56.5,40.1,83.4,69c5.9,6.2,11.6,12.9,17.3,19.7
	c-22.7,36.4-42.1,77.5-56.3,121.5c-29.7-40.4-64.9-73.8-102-99c0.2-0.4,0.3-0.8,0.5-1.3C805.2,322.3,825.4,285.5,846.1,254.2z
	 M1092.1,256.2c20.3,30.8,39.9,66.8,55.9,107.8c0.5,1.3,0.9,2.6,1.4,3.9c-35.8,24.9-69.8,57.5-98.5,96.6
	c-14.2-44-33.6-85.1-56.3-121.5c5.7-6.8,11.4-13.5,17.3-19.7C1037.7,295.4,1065.3,273.5,1092.1,256.2z M1187.2,560.7
	c0.8,34.8-2.1,69.8-8.3,103.2c-6.4,33.4-16,65.3-27.9,94.7c-11.8,29.5-25.9,56.3-40.4,80.6c-14.5,24.4-29.5,46.2-44,65.6
	c-28.9,38.9-55.1,68.9-73.5,89.7c-7.8,8.7-14.1,15.8-18.9,21.1c-0.4,0-0.8,0.1-1.4,0.1c3.1-7.3,8.1-19.1,14.8-34.6
	c11.6-27.8,28.1-67.6,44.9-117.5c8.5-24.9,16.7-52.5,23.9-82.5c7.2-30,13.5-62.4,16.7-96.8c3.4-34.4,3.9-70.7,0.6-107.4
	c-2.4-25.2-6.6-50.5-12.5-75.3c2.8-3.7,5.5-7.4,8.4-10.9c27.8-33.9,60.1-61.4,93.6-81.8C1177.3,456.3,1186,508.2,1187.2,560.7z
	 M890.2,581c2.4-17,5.7-33.9,9.8-50.5c8.1,13,15.5,26.5,22.2,40.5c13.7,29.3,24.4,60.6,32,92c3.3,13.3,5.9,26.5,8.2,39.8
	c-2.1,17.8-3.6,35.3-4.5,52.2c-1.7,31.3-1.8,60.9-0.9,88.1c1.6,54.4,5.8,99.2,8.8,130.5c1.6,15.7,2.9,27.9,3.7,36.3
	c-0.1,0.9-0.1,1.8-0.1,2.6c-2.8-7.6-7-19-12.5-33.9c-10.3-28.5-24.9-69.4-39.2-119.9c-7.2-25.2-14.1-52.9-19.7-82.6
	c-5.7-29.7-10.3-61.4-11.8-94.3C884.5,648.9,885.6,614.8,890.2,581z M1051.2,581c4.5,33.7,5.7,67.8,4,100.7
	c-1.5,33-6.1,64.7-11.8,94.3c-5.6,29.7-12.5,57.4-19.7,82.6c-14.3,50.5-28.9,91.4-39.2,119.9c-5.5,14.8-9.7,26.2-12.5,33.9
	c0-0.8-0.1-1.7-0.1-2.6c0.9-8.4,2.1-20.6,3.7-36.3c3-31.3,7.2-76.1,8.8-130.5c0.9-27.2,0.8-56.8-0.9-88.1
	c-0.9-16.9-2.4-34.4-4.5-52.2c2.3-13.2,4.9-26.5,8.2-39.8c7.7-31.5,18.3-62.7,32-92c6.7-14,14.1-27.6,22.2-40.5
	C1045.5,547.2,1048.8,564.1,1051.2,581z M974.6,842.7c0.9,53.7-1.3,98.7-2.9,130c-0.4,6.7-0.7,12.7-1,18.1c-0.3-5.4-0.6-11.4-1-18.1
	c-1.6-31.4-3.7-76.3-2.9-130c0.3-23.7,1.5-49.1,3.9-75.6C973,793.6,974.2,819.1,974.6,842.7z M1026.6,482.6c1.5,4,2.7,8,4.1,12.1
	c-11.9,19.6-22.6,40.4-31.5,61.9c-12.7,31.1-22,63.4-28.5,95.4c-6.5-32-15.8-64.3-28.5-95.4c-8.9-21.6-19.6-42.3-31.5-61.9
	c1.4-4,2.6-8.1,4.1-12.1c14.6-39.7,33.9-76.2,56-108.3C992.7,406.4,1012,443,1026.6,482.6z M871.6,490.8c2.9,3.5,5.6,7.2,8.4,10.9
	c-6,24.7-10.2,50-12.5,75.3c-3.2,36.7-2.7,73,0.6,107.4c3.2,34.4,9.5,66.9,16.7,96.8c7.2,30,15.5,57.6,23.9,82.5
	c16.8,49.9,33.3,89.7,44.9,117.5c6.6,15.5,11.6,27.2,14.8,34.6c-2.3-0.2-3.5-0.3-3.5-0.3c-0.1,0-0.1,0-0.2,0
	c-4.9-5.5-11.8-13.2-20.6-22.9c-18.4-20.7-44.6-50.6-73.5-89.4c-14.5-19.3-29.5-41.1-43.9-65.3c-14.5-24.2-28.6-50.8-40.4-80.2
	c-11.9-29.2-21.5-61-27.9-94.3c-6.2-33.2-9.2-68.1-8.4-102.8c1.1-53.2,10-105.9,24.3-153.8C809.2,427.4,842.8,455.7,871.6,490.8z
	 M1185,210.5c8.1-3.1,15.9-5.3,23-7.6c7.2-2,13.9-4,20-5.5c9.8-2.5,18.1-4.3,24.6-5.7c3.6,7.1,8.2,16.1,13.4,27.2
	c3.2,6.8,6.6,14.4,10.3,22.7c3.5,8.4,7.5,17.2,11.2,27c4.6,11.3,9.2,23.8,13.7,37c-34.7,6.1-72,17.4-109.2,36.6
	c-3,1.5-6.1,3.2-9.1,4.8c-0.4-1.1-0.7-2.2-1-3.3c-13.8-41.3-30.9-78.3-49.1-110.8C1151.4,223.4,1169.1,216.1,1185,210.5z
	 M912.2,171.2c6.4-7,12.9-13.1,18.7-18.9c6-5.6,11.4-10.8,16.5-15.4c8.2-7.4,15.2-13.4,20.8-18c5.6,4.6,12.6,10.5,20.8,17.9
	c5.1,4.6,10.6,9.8,16.6,15.4c5.8,5.9,12.3,11.9,18.7,18.9c11.9,12.4,24.7,26.9,37.7,43.4c-25.3,19.8-51,43.7-75,72.6
	c-5.5,6.6-11,13.5-16.3,20.7c-5.3-7.1-10.7-14.1-16.3-20.7c-25-30-51.6-54.7-77.8-74.8C888.9,196.7,900.9,183,912.2,171.2z
	 M653.7,268.6c3.7-9.8,7.7-18.6,11.2-27c3.7-8.2,7.1-15.8,10.3-22.7c5.2-11,9.8-20.1,13.4-27.2c6.5,1.3,14.8,3.2,24.6,5.7
	c6.1,1.5,12.7,3.5,20,5.5c7.1,2.4,14.9,4.5,23,7.6c14.9,5.2,31.4,12,48.7,20.6c-18.5,33.1-36.1,70.8-50.1,113
	c-0.1,0.3-0.2,0.6-0.3,0.9c-1.8-1-3.6-1.9-5.4-2.9c-37.2-19.2-74.6-30.5-109.2-36.6C644.6,292.3,649.2,279.9,653.7,268.6z
	 M938.1,1018.9c-24.4,2-59.4,4.7-101.2,3.4c-20.9-0.5-43.5-2.3-67.1-6.4c-23.6-4-48.3-10-72.8-20.2c-24.5-10-48.9-23.8-71.7-41.6
	c-22.7-18-44-40-62.5-65.4c-37.2-50.8-64.5-112.9-80.3-174.9c-16-62-21.3-123.7-21.4-176.5c-0.1-26.5,1.1-50.8,2.9-72.5
	c0.7-10.8,2-21,2.9-30.4c1.2-9.4,2.2-18.1,3.3-26c1.8-12.7,3.5-23.3,4.9-31.6c6.5-1.8,14.7-4,24.6-6.2c6.1-1.4,12.9-2.7,20.2-4.2
	c7.3-1.1,15.2-2.7,23.6-3.6c10.6-1.4,22.2-2.5,34.4-3.1c-8.6,44.8-14.4,95.1-14,148.3c0.3,71.5,12.4,147.5,37.7,215.8
	c12.5,34.2,28.8,66,47.5,94.2c18.8,28,40,52.1,62,72.3c21.9,20.3,44.8,36.4,66.9,49.9c22.1,13.5,43.5,24.4,63.5,33.2
	c40,17.9,74,29.2,97.7,36.9c7.9,2.5,14.6,4.7,20.1,6.4C953.1,1017.5,946.2,1018.2,938.1,1018.9z M1459,713.9
	c-15.8,62-43.1,124.1-80.3,174.9c-18.6,25.4-39.8,47.5-62.5,65.4c-22.8,17.8-47.2,31.6-71.7,41.6c-24.5,10.2-49.2,16.2-72.8,20.2
	c-23.6,4-46.2,5.9-67.1,6.4c-41.8,1.2-76.8-1.5-101.2-3.4c-8.1-0.7-15.1-1.4-20.8-1.9c5.5-1.7,12.2-3.9,20.1-6.4
	c23.7-7.8,57.7-19,97.7-36.9c20-8.9,41.4-19.7,63.5-33.2c22.1-13.5,44.9-29.5,66.9-49.9c22-20.2,43.2-44.3,62-72.3
	c18.7-28.1,34.9-60,47.5-94.2c25.2-68.3,37.4-144.3,37.7-215.8c0.4-53.3-5.4-103.5-14-148.3c12.2,0.6,23.8,1.6,34.4,3.1
	c8.4,0.9,16.3,2.5,23.6,3.6c7.3,1.5,14,2.8,20.2,4.2c9.9,2.3,18.1,4.4,24.6,6.2c1.4,8.3,3.1,18.9,4.9,31.6c1.1,7.9,2.1,16.5,3.3,26
	c0.9,9.4,2.1,19.6,2.9,30.4c1.8,21.7,3,46,2.9,72.5C1480.3,590.2,1475,651.9,1459,713.9z"/>
</svg>
